<?xml version="1.0" encoding="UTF-8" standalone="no"?>
<!-- Created with Inkscape (http://www.inkscape.org/) -->

<svg
   xmlns:dc="http://purl.org/dc/elements/1.1/"
   xmlns:cc="http://creativecommons.org/ns#"
   xmlns:rdf="http://www.w3.org/1999/02/22-rdf-syntax-ns#"
   xmlns:svg="http://www.w3.org/2000/svg"
   xmlns="http://www.w3.org/2000/svg"
   xmlns:sodipodi="http://sodipodi.sourceforge.net/DTD/sodipodi-0.dtd"
   xmlns:inkscape="http://www.inkscape.org/namespaces/inkscape"
   width="210mm"
   height="297mm"
   viewBox="0 0 744.09448819 1052.3622047"
   id="svg2"
   version="1.1"
   inkscape:version="0.91 r13725"
   sodipodi:docname="logo2.svg"
   inkscape:export-filename="/Users/joakimsk/Desktop/statsnail_logos/logo2.png"
   inkscape:export-xdpi="164.7"
   inkscape:export-ydpi="164.7">
  <defs
     id="defs4" />
  <sodipodi:namedview
     id="base"
     pagecolor="#ffffff"
     bordercolor="#666666"
     borderopacity="1.0"
     inkscape:pageopacity="0.0"
     inkscape:pageshadow="2"
     inkscape:zoom="3.959798"
     inkscape:cx="200.42741"
     inkscape:cy="453.53484"
     inkscape:document-units="px"
     inkscape:current-layer="layer1"
     showgrid="false"
     inkscape:window-width="1440"
     inkscape:window-height="785"
     inkscape:window-x="292"
     inkscape:window-y="100"
     inkscape:window-maximized="0"
     showguides="false" />
  <metadata
     id="metadata7">
    <rdf:RDF>
      <cc:Work
         rdf:about="">
        <dc:format>image/svg+xml</dc:format>
        <dc:type
           rdf:resource="http://purl.org/dc/dcmitype/StillImage" />
        <dc:title></dc:title>
      </cc:Work>
    </rdf:RDF>
  </metadata>
  <g
     inkscape:label="Layer 1"
     inkscape:groupmode="layer"
     id="layer1">
    <path
       style="fill:#da7209"
       d="m 237.71424,697.42076 c -5.73853,-0.85274 -10.5227,-1.76928 -13.43905,-2.57463 -1.12479,-0.31062 -2.96536,-0.81084 -4.09015,-1.11164 -32.52664,-8.69758 -64.1464,-36.75809 -77.48092,-68.75937 -12.80908,-30.74028 -12.98071,-59.9711 -0.45543,-77.56805 1.08707,-1.52725 1.97649,-3.13163 1.97649,-3.56529 0,-2.53686 -10.57727,-15.61447 -15.57203,-19.25307 -1.23712,-0.90122 -3.5888,-2.62545 -5.22595,-3.83162 -3.91272,-2.8827 -11.25841,-6.63369 -16.06957,-8.20573 l -3.85423,-1.25936 -2.76767,1.18635 c -9.996708,4.28509 -20.244376,-4.60512 -17.042435,-14.78493 2.948108,-9.37279 15.096988,-11.85069 20.906145,-4.26403 2.53499,3.31064 3.21443,3.78844 6.90457,4.8554 9.73389,2.81446 21.83547,10.41314 30.96973,19.44616 5.34156,5.28234 7.63325,8.02238 12.45839,14.89581 0.78099,1.11252 0.87152,1.09591 3.66543,-0.67241 9.0347,-5.71822 18.92134,-8.18743 30.57133,-7.63524 3.95705,0.18755 6.47528,0.089 6.47528,-0.25356 0,-0.73579 -2.41243,-6.97569 -5.37651,-13.90668 -8.06715,-18.86366 -22.7106,-41.48577 -26.85402,-41.48577 -7.82461,0 -13.85773,-10.38557 -10.35811,-17.83069 5.66896,-12.0602 23.30652,-7.97338 23.30652,5.40038 0,2.56813 0.33429,3.23286 4.04983,8.05298 13.97905,18.13479 25.52789,41.36704 31.83449,64.03991 0.77231,2.77651 1.29197,3.52754 3.40257,4.91748 14.10365,9.28798 23.81822,27.65035 23.81822,45.02093 0,9.24454 11.2393,16.40342 19.87081,12.65672 6.2742,-2.72345 8.96875,-6.78376 9.00991,-13.57668 0.034,-5.61037 -0.66973,-6.92401 -7.51243,-14.02336 -16.3116,-16.92339 -24.56308,-28.38048 -33.70968,-46.80555 -20.28105,-40.85442 -23.38457,-86.80417 -8.79659,-130.23935 2.90146,-8.639 9.36089,-23.42279 12.76495,-29.21534 1.03871,-1.76752 2.32708,-4.0025 2.86304,-4.9666 15.33254,-27.58074 48.42164,-56.27103 80.86402,-70.11411 26.36436,-11.24961 63.01233,-15.99621 90.58903,-11.73299 7.63613,1.1805 14.55841,2.49084 16.65274,3.15225 0.96411,0.30447 2.80467,0.84235 4.09015,1.1953 20.51939,5.63388 35.65316,12.84497 55.70884,26.54476 13.80822,9.43221 33.29111,29.74389 42.99083,44.81957 0.93045,1.44616 2.22855,3.41224 2.88466,4.36908 19.20102,28.0018 29.72263,77.93562 24.07279,114.24516 -5.90021,37.91852 -20.81942,68.22493 -46.99128,95.45672 -9.36819,9.74759 -10.84263,12.32896 -10.50046,18.38392 0.67272,11.90513 14.61994,17.73975 23.97416,10.02922 3.36094,-2.77038 4.53107,-5.79139 5.16884,-13.34522 0.77274,-9.15205 3.59559,-18.82335 7.01892,-24.04726 0.52646,-0.80342 1.72143,-2.6247 2.6555,-4.04729 4.06561,-6.19219 14.79996,-15.25667 21.43558,-18.10103 25.9774,-11.1352 53.17705,-2.26235 68.32105,22.28709 12.01422,19.47587 7.2707,59.29029 -10.56485,88.67584 -5.4122,8.91702 -17.88539,23.94568 -23.44519,28.24863 -1.12479,0.8705 -3.49123,2.77248 -5.25876,4.22652 -35.64142,29.32063 -89.43595,34.49747 -130.59253,12.56733 -56.85806,-30.29659 -80.35571,-96.42071 -55.35347,-155.76859 5.64826,-13.4072 13.12651,-24.22972 25.84593,-37.40419 16.07807,-16.6532 22.13698,-29.12465 23.1906,-47.73445 2.62792,-46.41699 -41.88035,-79.63159 -87.01307,-64.93412 -45.03971,14.66718 -58.61608,73.20162 -24.99307,107.7574 28.94503,29.74802 40.04318,55.01481 40.01682,91.10497 -0.0444,60.52813 -44.36945,111.18832 -104.54454,119.486 -7.70865,1.06297 -25.30136,1.06093 -32.46617,-0.006 z"
       id="path3347"
       inkscape:connector-curvature="0"
       sodipodi:nodetypes="cscsssssscssssssssssssssssssssssssssssssssssssccssssssssssssscc" />
  </g>
</svg>
